<svg width="60" height="60" viewBox="0 0 60 60" fill="none" xmlns="http://www.w3.org/2000/svg">
<path d="M59.1087 12.342C57.0212 13.267 54.7788 13.892 52.4212 14.1745C54.8538 12.7189 56.6736 10.4281 57.5413 7.72946C55.2559 9.08693 52.7546 10.0424 50.1463 10.5545C48.3922 8.68162 46.0689 7.44028 43.5371 7.02315C41.0052 6.60601 38.4065 7.03644 36.1443 8.24759C33.8822 9.45875 32.0832 11.3829 31.0266 13.7212C29.9701 16.0596 29.7151 18.6813 30.3012 21.1795C25.6705 20.9469 21.1403 19.7433 17.0048 17.6467C12.8693 15.5501 9.22085 12.6074 6.29625 9.00946C5.29625 10.7345 4.72125 12.7345 4.72125 14.8645C4.72013 16.7819 5.19233 18.6701 6.09595 20.3613C6.99956 22.0525 8.30665 23.4946 9.90125 24.5595C8.05194 24.5006 6.24343 24.0009 4.62625 23.102V23.252C4.62606 25.9413 5.55633 28.5479 7.25921 30.6295C8.96208 32.711 11.3327 34.1393 13.9688 34.672C12.2532 35.1362 10.4546 35.2046 8.70875 34.872C9.45249 37.186 10.9012 39.2095 12.8522 40.6593C14.8031 42.109 17.1585 42.9124 19.5888 42.957C15.4633 46.1955 10.3685 47.9522 5.12375 47.9445C4.1947 47.9447 3.26644 47.8905 2.34375 47.782C7.66744 51.2049 13.8646 53.0215 20.1938 53.0145C41.6187 53.0145 53.3313 35.2695 53.3313 19.8795C53.3313 19.3795 53.3188 18.8745 53.2962 18.3745C55.5745 16.7269 57.541 14.6867 59.1038 12.3495L59.1087 12.342Z" fill="url(#paint0_linear)"/>
<defs>
<linearGradient id="paint0_linear" x1="-21.2912" y1="-23.2993" x2="90.9269" y2="-9.9111" gradientUnits="userSpaceOnUse">
<stop stop-color="#FA5680"/>
<stop offset="1" stop-color="#1F319B"/>
</linearGradient>
</defs>
</svg>
