<svg width="60" height="60" viewBox="0 0 60 60" fill="none" xmlns="http://www.w3.org/2000/svg">
<g clip-path="url(#clip0)">
<path d="M50.7937 11.2304C46.9687 9.50542 42.8687 8.23042 38.5812 7.50542C38.543 7.49809 38.5035 7.50282 38.4681 7.51894C38.4327 7.53507 38.4032 7.56179 38.3837 7.59542C37.8587 8.51792 37.2737 9.72042 36.8637 10.6704C32.3164 9.99101 27.6935 9.99101 23.1462 10.6704C22.6895 9.61757 22.1746 8.59098 21.6037 7.59542C21.5844 7.56138 21.5551 7.53405 21.5198 7.51707C21.4845 7.5001 21.4449 7.49429 21.4062 7.50042C17.1212 8.22542 13.0212 9.50042 9.1937 11.2279C9.16077 11.2417 9.13286 11.2653 9.1137 11.2954C1.3337 22.7329 -0.798798 33.8879 0.248702 44.9029C0.251616 44.9299 0.25999 44.956 0.273314 44.9796C0.286637 45.0033 0.304632 45.024 0.326202 45.0404C4.86718 48.3465 9.93204 50.865 15.3087 52.4904C15.3462 52.502 15.3863 52.5019 15.4237 52.4903C15.4612 52.4787 15.4943 52.4561 15.5187 52.4254C16.6737 50.8754 17.7037 49.2379 18.5837 47.5179C18.6362 47.4179 18.5862 47.2979 18.4812 47.2579C16.8662 46.6497 15.3014 45.9158 13.8012 45.0629C13.7742 45.0475 13.7515 45.0257 13.7351 44.9994C13.7187 44.973 13.709 44.943 13.707 44.9121C13.7051 44.8811 13.7108 44.8501 13.7237 44.8219C13.7367 44.7937 13.7564 44.7691 13.7812 44.7504C14.0962 44.5179 14.4112 44.2754 14.7112 44.0329C14.7382 44.0111 14.7707 43.9972 14.8052 43.9928C14.8396 43.9884 14.8746 43.9936 14.9062 44.0079C24.7237 48.4179 35.3562 48.4179 45.0587 44.0079C45.0904 43.9928 45.1258 43.9869 45.1607 43.9908C45.1956 43.9948 45.2287 44.0085 45.2562 44.0304C45.5562 44.2754 45.8687 44.5179 46.1862 44.7504C46.2112 44.7687 46.2313 44.793 46.2447 44.8209C46.258 44.8489 46.2642 44.8797 46.2627 44.9107C46.2612 44.9417 46.2521 44.9718 46.2361 44.9983C46.2202 45.0249 46.1979 45.0471 46.1712 45.0629C44.6762 45.9229 43.1212 46.6504 41.4887 47.2554C41.4636 47.2645 41.4408 47.2789 41.4217 47.2975C41.4026 47.3161 41.3877 47.3386 41.378 47.3635C41.3683 47.3883 41.364 47.4149 41.3654 47.4416C41.3669 47.4682 41.3739 47.4942 41.3862 47.5179C42.2862 49.2354 43.3162 50.8704 44.4487 52.4229C44.4722 52.4548 44.5051 52.4786 44.5426 52.4911C44.5802 52.5037 44.6208 52.5043 44.6587 52.4929C50.0446 50.872 55.1177 48.3524 59.6637 45.0404C59.6859 45.0249 59.7045 45.0048 59.7183 44.9816C59.7321 44.9583 59.7407 44.9323 59.7437 44.9054C60.9937 32.1704 57.6487 21.1054 50.8712 11.3004C50.8546 11.2686 50.8271 11.2437 50.7937 11.2304ZM20.0512 38.1954C17.0962 38.1954 14.6587 35.5229 14.6587 32.2454C14.6587 28.9654 17.0487 26.2954 20.0512 26.2954C23.0762 26.2954 25.4912 28.9879 25.4437 32.2454C25.4437 35.5254 23.0537 38.1954 20.0512 38.1954ZM39.9887 38.1954C37.0312 38.1954 34.5962 35.5229 34.5962 32.2454C34.5962 28.9654 36.9837 26.2954 39.9887 26.2954C43.0137 26.2954 45.4287 28.9879 45.3812 32.2454C45.3812 35.5254 43.0162 38.1954 39.9887 38.1954Z" fill="url(#paint0_linear)"/>
</g>
<defs>
<linearGradient id="paint0_linear" x1="-24.9827" y1="-21.9219" x2="93.3439" y2="-6.62095" gradientUnits="userSpaceOnUse">
<stop stop-color="#FA5680"/>
<stop offset="1" stop-color="#1F319B"/>
</linearGradient>
<clipPath id="clip0">
<rect width="60" height="60" fill="white"/>
</clipPath>
</defs>
</svg>
