<svg width="201" height="54" viewBox="0 0 201 54" fill="none" xmlns="http://www.w3.org/2000/svg">
<path d="M14.5876 33.7601C11.0242 33.6877 7.14241 32.3135 3.02882 29.672C2.348 29.25 1.85184 28.5812 1.64173 27.8021C1.43163 27.023 1.5234 26.1922 1.8982 25.479L4.74172 20.0892C4.80202 19.9762 4.86873 19.8668 4.94146 19.7614C2.59353 17.5925 1.45726 14.8556 1.63062 11.7166C1.52886 6.30585 5.83466 3.33077 9.47527 1.76985C9.68877 1.68037 9.91018 1.61208 10.1367 1.56592C11.3591 1.31802 12.6022 1.19036 13.8489 1.18474C18.2715 1.16568 22.5792 2.72851 26.6626 5.83319C27.3045 6.30874 27.743 7.01375 27.8888 7.80473C28.0348 8.59571 27.8773 9.41324 27.4484 10.0909L23.9171 15.658C23.902 15.6828 23.887 15.7076 23.87 15.7323C26.9585 18.3415 28.3793 21.2708 28.1061 24.4861C28.0119 26.9389 26.7983 30.32 21.5974 32.6089C19.9825 33.3294 17.7232 33.7067 14.7006 33.7525H14.5876V33.7601Z" fill="#1C1C1C"/>
<path d="M39.8824 34.839H39.6939L34.1859 34.5493C33.392 34.5081 32.6373 34.1887 32.0509 33.6459C31.4553 34.105 30.7271 34.3541 29.9781 34.3549H29.7991L24.1233 34.0766C22.3049 33.9871 20.8841 32.4757 20.9557 30.7051L21.472 17.9243L21.9563 5.73807C21.9991 4.97 22.3061 4.24123 22.8239 3.67779C23.3417 3.11434 24.038 2.75165 24.7923 2.65245L30.6697 1.78527C30.83 1.76082 30.9919 1.74872 31.1539 1.74906C31.9857 1.74521 32.7902 2.04962 33.4152 2.6048C33.7806 2.92491 34.0678 3.32612 34.2543 3.77709C34.4411 4.22804 34.5221 4.71654 34.4912 5.20442L34.152 10.3617C34.4761 10.337 34.7927 10.3255 35.0942 10.3236C36.5046 10.293 37.9053 10.5678 39.2021 11.1298C42.9709 12.6316 44.6838 16.4015 44.0205 21.7532C43.8414 23.7925 43.5607 27.1907 43.1838 31.8544C43.0575 33.5163 41.6028 34.8314 39.8824 34.839Z" fill="#1C1C1C"/>
<path d="M46.2749 35.0258C40.5935 35.0258 37.1847 31.3722 37.1432 25.2353C36.9548 21.7742 37.6558 17.7566 39.2424 13.2949C39.4213 12.795 39.719 12.3473 40.1092 11.9913C40.038 11.6445 39.9928 11.2929 39.9736 10.9392V10.9183C39.9057 9.33447 40.3014 4.1257 48.165 3.6416H48.3534C48.442 3.6416 48.5305 3.6416 48.6172 3.65113C51.6322 3.87412 53.7144 5.66374 54.0725 8.31864C54.0913 8.46655 54.1007 8.6155 54.1007 8.76461C54.0838 11.2175 53.2264 13.1882 51.6624 14.5051C51.6869 14.5471 51.7095 14.5871 51.7302 14.629C51.9388 15.0318 52.0583 15.4757 52.0803 15.9298C52.1025 16.384 52.0268 16.8375 51.8583 17.2591C51.2468 18.7276 50.8042 20.2624 50.5393 21.8333C50.973 21.9793 51.3718 22.2152 51.7102 22.5259C52.0487 22.8367 52.3193 23.2156 52.5047 23.6381L54.6585 28.6411C54.9186 29.2525 54.9817 29.9312 54.8394 30.5811C54.697 31.231 54.3563 31.8191 53.8652 32.2623C51.9262 34.0328 49.3917 34.9648 46.3277 35.0296H46.2636L46.2749 35.0258Z" fill="#1C1C1C"/>
<path d="M56.9446 36.0029C56.7029 36.0029 56.4617 35.978 56.2248 35.9286L49.8293 34.5945C49.0416 34.4447 48.3374 34.0039 47.8535 33.3578C47.3698 32.7117 47.141 31.9064 47.2119 31.0991L48.1126 22.2768C48.3236 17.9638 48.5328 13.0009 48.7307 7.52718C48.7655 6.77601 49.0552 6.05991 49.5506 5.49934C50.0461 4.93876 50.7175 4.56791 51.4517 4.44917L58.3146 3.19701C58.5128 3.16032 58.7141 3.14182 58.9157 3.14174C59.7171 3.1345 60.4956 3.41243 61.1148 3.92696C61.4916 4.23663 61.7926 4.63048 61.9936 5.07758C62.1947 5.52466 62.2906 6.01284 62.2737 6.50372L62.0852 11.6C62.5883 11.5524 63.1009 11.5257 63.621 11.5238C63.9526 11.5238 64.2918 11.5238 64.6291 11.5467C66.8131 11.6534 70.7364 12.6635 72.4625 18.2173C72.5081 18.3617 72.5427 18.5096 72.5661 18.6594C73.0391 21.6173 72.9694 24.9717 72.3569 28.6272C72.3419 28.7263 72.3193 28.8178 72.2948 28.9207C71.5994 31.526 69.3419 35.9019 62.0193 35.9362C61.8063 35.9362 61.5896 35.9362 61.3692 35.9362H61.2881C60.4221 35.888 59.5641 35.7403 58.731 35.496C58.1932 35.8286 57.575 36.0041 56.9446 36.0029Z" fill="#1C1C1C"/>
<path d="M79.6132 37.0074C78.9303 37.0158 78.2607 36.8164 77.6911 36.4356L77.6157 36.3841C76.7351 36.5132 75.8467 36.5801 74.9569 36.5843C74.563 36.5843 74.1635 36.5843 73.7659 36.5538C73.5756 36.5444 73.3864 36.5183 73.2006 36.4756C68.5726 35.4388 65.9665 32.3017 65.8516 27.6419C65.8516 27.5637 65.8516 27.4837 65.8516 27.4055C65.9533 25.4577 66.6524 23.832 67.8999 22.597L67.3572 22.1339C66.7325 21.6071 66.3345 20.8558 66.2469 20.038C66.1595 19.2202 66.3892 18.4001 66.888 17.7503C70.0726 13.6241 74.0599 11.52 78.7407 11.499C79.0931 11.499 79.4549 11.499 79.8148 11.5314C82.6734 11.5829 87.5407 12.9437 88.4188 21.3429C88.4179 21.3511 88.4179 21.3595 88.4188 21.3677C88.7957 25.5168 89.0237 29.1818 89.1029 32.2655C89.1093 33.0216 88.8575 33.7567 88.3904 34.3469C87.9232 34.9372 87.269 35.3464 86.5382 35.5055L80.3518 36.9349C80.1089 36.9866 79.8613 37.011 79.6132 37.0074Z" fill="#1C1C1C"/>
<path d="M97.3177 37.6079C96.5208 37.6129 95.7471 37.3365 95.13 36.8265C94.7983 36.5521 94.5251 36.2128 94.3263 35.829C94.1275 35.4451 94.0072 35.0247 93.9729 34.5928L92.1639 10.0622C92.1334 9.62111 92.1939 9.17841 92.3418 8.76232C92.4897 8.34623 92.7219 7.96589 93.0232 7.64553C93.6486 6.98592 94.5074 6.60416 95.4107 6.58395L116.951 6.10367C117.429 6.09908 117.902 6.19654 118.339 6.38965C118.777 6.58277 119.17 6.8672 119.491 7.22433C119.813 7.57985 120.049 8.00534 120.183 8.46796C120.316 8.93057 120.342 9.41798 120.26 9.89256L119.011 17.1483C118.866 17.8931 118.477 18.5663 117.905 19.0578C117.333 19.5495 116.614 19.8304 115.864 19.8546H115.824C115.824 19.9385 115.807 20.0204 115.792 20.1043L114.963 24.9948C114.821 25.7501 114.425 26.4328 113.843 26.9277C113.262 27.4227 112.529 27.6998 111.769 27.7126L108.526 27.8079L108.875 33.5122C108.98 35.258 107.608 36.796 105.816 36.9428L97.5778 37.5965C97.4898 37.6041 97.4031 37.6079 97.3177 37.6079Z" fill="#1C1C1C"/>
<path d="M125.984 39.2873C125.302 39.2953 124.632 39.0962 124.062 38.7156L123.987 38.6622C123.106 38.7889 122.218 38.8526 121.328 38.8528C120.936 38.8528 120.535 38.8528 120.137 38.8223C119.947 38.8129 119.758 38.7868 119.572 38.7441C114.946 37.7073 112.338 34.5703 112.223 29.9104C112.223 29.8303 112.223 29.7503 112.223 29.6702C112.323 27.7262 113.022 26.0986 114.269 24.8655L113.726 24.4024C113.102 23.8758 112.704 23.1241 112.616 22.3063C112.529 21.4883 112.76 20.6682 113.259 20.0189C116.442 15.8926 120.429 13.7885 125.112 13.7676C125.462 13.7676 125.824 13.7676 126.184 13.8C129.045 13.8533 133.91 15.2122 134.788 23.6114C134.788 23.6114 134.788 23.6286 134.788 23.6362C135.165 27.7853 135.393 31.4503 135.472 34.5341C135.479 35.2901 135.227 36.0252 134.76 36.6155C134.292 37.2057 133.638 37.6149 132.907 37.7741L126.742 39.1977C126.493 39.2561 126.239 39.2862 125.984 39.2873Z" fill="#1C1C1C"/>
<path d="M157.495 40.6197C157.435 40.6197 157.374 40.6197 157.306 40.6197L151.676 40.3415C150.991 40.307 150.331 40.0661 149.782 39.6496C149.247 39.9786 148.633 40.1539 148.007 40.1566C147.947 40.1566 147.888 40.1566 147.819 40.1566L142.331 39.8803C141.57 39.8442 140.844 39.5502 140.268 39.0455C139.695 39.4547 139.011 39.6756 138.31 39.6782H138.122L131.756 39.3657C130.876 39.323 130.047 38.9386 129.44 38.2927C129.149 37.9786 128.924 37.6081 128.778 37.2036C128.631 36.7992 128.568 36.3689 128.59 35.9389L129.094 27.3472C129.26 24.4266 129.242 21.4984 129.039 18.5801C128.896 16.8496 130.169 15.3211 131.943 15.1019L137.982 14.351C138.117 14.3335 138.253 14.3246 138.389 14.3243C139.154 14.3199 139.899 14.5742 140.505 15.0466C140.581 15.1057 140.652 15.1667 140.72 15.2372C141.035 15.2181 141.338 15.2067 141.628 15.2048C142.231 15.2003 142.833 15.2417 143.43 15.3287C144.539 15.4652 145.626 15.7444 146.665 16.1596C148.124 15.485 149.893 15.1381 151.942 15.1286C152.318 15.1286 152.695 15.1286 153.072 15.1552C155.043 15.2524 158.703 16.0815 161.054 20.5508C161.152 20.738 161.233 20.9346 161.294 21.1378C161.75 22.6818 161.94 24.2934 161.859 25.9025C161.593 30.9874 161.23 35.0145 160.774 37.8734C160.638 38.6502 160.235 39.3529 159.634 39.856C159.032 40.3592 158.275 40.6298 157.495 40.6197Z" fill="#1C1C1C"/>
<path d="M164.126 40.8195C158.445 40.8195 155.036 37.166 154.995 31.029C154.806 27.566 155.507 23.5503 157.094 19.0868C157.273 18.5876 157.571 18.1405 157.961 17.7851C157.889 17.4383 157.844 17.0866 157.825 16.733V16.7083C157.757 15.1226 158.153 9.91569 166.016 9.42969H166.205C166.293 9.42969 166.382 9.42969 166.469 9.43922C169.484 9.6622 171.557 11.4499 171.924 14.1067C171.943 14.252 171.952 14.3985 171.952 14.5451C171.935 17.0037 171.078 18.9762 169.514 20.2932C169.538 20.3332 169.561 20.3751 169.582 20.4171C169.791 20.8196 169.91 21.2631 169.932 21.7169C169.955 22.1707 169.878 22.6241 169.71 23.0453C169.099 24.514 168.657 26.0488 168.391 27.6194C168.824 27.7654 169.224 28.0015 169.563 28.3126C169.9 28.6238 170.172 29.0031 170.356 29.4262L172.514 34.4329C172.774 35.0443 172.838 35.723 172.695 36.3729C172.552 37.0228 172.212 37.611 171.721 38.0541C169.781 39.8266 167.247 40.7586 164.183 40.8234H164.119L164.126 40.8195Z" fill="#1C1C1C"/>
<path d="M174.887 41.4446C174.564 41.4446 174.231 41.4446 173.895 41.4122C168.453 41.132 166.703 38.0045 166.141 36.1329C165.593 34.5148 165.387 32.5727 165.504 30.1999C165.666 24.6728 166.942 18.3033 169.298 11.2554C169.526 10.6019 169.95 10.0357 170.507 9.63427C171.067 9.23279 171.734 9.01554 172.42 9.01217L179.187 8.90925C179.697 8.90592 180.202 9.01859 180.664 9.23895C181.124 9.45931 181.531 9.78173 181.853 10.1824C182.17 10.5789 182.386 11.0468 182.484 11.5463C182.582 12.0458 182.56 12.562 182.418 13.0507C179.946 21.4366 178.912 25.8506 178.525 28.1701C179.373 28.3395 180.125 28.833 180.623 29.548L183.229 33.3598C183.572 33.854 183.766 34.4382 183.786 35.0416C183.809 35.645 183.658 36.2417 183.351 36.7599C181.591 39.7693 178.587 41.4274 174.887 41.4446Z" fill="#1C1C1C"/>
<path d="M183.624 49.653C183.066 49.6604 182.516 49.5272 182.024 49.2657C181.531 49.0042 181.109 48.6224 180.798 48.1549L177.355 42.908C177.1 42.523 176.933 42.086 176.865 41.628C176.797 41.1701 176.829 40.7026 176.961 40.2589C177.099 39.8102 177.328 39.3964 177.638 39.0454C177.947 38.6943 178.325 38.414 178.749 38.2234C179.618 37.8256 180.44 37.4025 181.218 36.9541C178.467 35.4961 176.839 32.7954 176.535 29.0637C176.535 28.9818 176.535 28.8941 176.535 28.8045C176.539 26.231 176.692 23.6601 176.993 21.1047C177.084 20.4083 177.393 19.7596 177.873 19.253C178.354 18.7466 178.983 18.4091 179.667 18.2898L185.09 17.2568C185.296 17.2175 185.507 17.1971 185.716 17.1958C186.441 17.1908 187.15 17.4191 187.738 17.8476L187.824 17.7694C188.441 17.2342 189.226 16.9394 190.039 16.9385C190.285 16.9381 190.53 16.9636 190.772 17.0147L197.367 18.4232C198.066 18.5631 198.699 18.9303 199.172 19.4689C199.645 20.0075 199.93 20.6877 199.984 21.4059L200.331 27.2398C200.337 27.3476 200.337 27.4559 200.331 27.5638C200.003 34.9319 197.881 40.4361 194.032 43.9258C190.295 47.3106 187.059 49.1727 184.133 49.6148C183.965 49.6404 183.794 49.6531 183.624 49.653Z" fill="#1C1C1C"/>
<path d="M178.116 30.3545L177.581 29.5712C177.379 29.8205 177.126 30.0218 176.84 30.1609C176.554 30.2998 176.241 30.3732 175.922 30.3755C175.444 30.3513 175.108 30.0858 174.916 29.5788C174.737 29.0132 174.673 28.4168 174.728 27.8254C174.859 25.2653 176.263 19.451 178.939 10.3828L173.098 10.4724L172.208 10.4857C169.936 17.2885 168.726 23.311 168.577 28.5535C168.473 30.547 168.637 32.1632 169.067 33.402C169.444 34.7323 170.36 35.6218 171.814 36.0703C172.472 36.263 173.15 36.3731 173.834 36.3981C176.77 36.6039 178.884 35.6001 180.175 33.3868L178.116 30.3545Z" fill="white"/>
<path d="M190.303 18.5207L189.791 18.4121C190.132 21.5046 190.194 24.622 189.979 27.7262C189.161 28.204 188.055 28.1556 186.661 27.5813C185.592 26.9257 185.17 24.436 185.396 20.1122L185.472 18.6694L180.84 19.5537L180.049 19.7043C179.76 22.1373 179.615 24.5856 179.613 27.0362C179.903 30.6054 181.712 32.6191 185.042 33.0779H185.061C185.366 33.1198 185.687 33.1484 186.018 33.1636L188.575 33.2894C186.418 35.7036 183.533 37.7364 179.917 39.3883L180.294 39.96L183.359 44.6313C186.433 43.7318 189.231 42.059 191.492 39.7694C198.787 32.2717 196.661 21.2328 196.42 20.0759L190.303 18.5207Z" fill="white"/>
<path d="M168 11.7896C167.738 11.4153 167.358 11.1424 166.923 11.0158H166.909C166.591 10.9115 166.261 10.8475 165.928 10.8252C162.449 11.0399 160.761 12.3353 160.86 14.7113C160.9 15.4368 161.104 15.994 161.473 16.3828C161.867 16.7693 162.383 17.0006 162.931 17.0346C166.504 17.1515 168.3 15.6985 168.321 12.6758C168.285 12.359 168.176 12.0553 168 11.7896ZM167.435 29.8707L166.988 28.8358C165.615 29.6668 164.837 29.3212 164.65 27.799C164.65 27.7927 164.65 27.7862 164.65 27.7799C164.565 25.6086 165.121 23.0229 166.316 20.023L160.674 18.4983L159.96 18.3077C158.496 22.4269 157.857 26.0202 158.043 29.0874C158.043 33.5205 159.971 35.7351 163.828 35.7313C166.048 35.6842 167.821 35.0547 169.146 33.8426L167.435 29.8707Z" fill="white"/>
<path d="M163.817 35.7253C159.965 35.7253 158.037 33.5107 158.032 29.0814C157.845 26.0154 158.484 22.4223 159.948 18.3018L160.662 18.4923C160.129 20.1657 158.689 25.06 158.778 28.7079C158.876 33.1791 160.457 35.3175 163.817 35.7253Z" fill="#DADAD8"/>
<path d="M167.426 29.8706C167.026 30.004 166.237 30.1927 165.609 29.8706C164.786 29.4418 164.654 27.9819 164.641 27.8027C164.827 29.3274 165.605 29.673 166.979 28.8395L167.426 29.8706Z" fill="#DADAD8"/>
<path d="M168.32 12.6791C168.3 15.7018 166.502 17.1548 162.931 17.0379C162.383 17.0039 161.866 16.7726 161.473 16.386C162.439 16.6409 163.451 16.6559 164.425 16.4299C165.132 16.2622 166.282 15.9896 167.133 14.93C168.141 13.674 168.038 12.1779 168 11.7891C168.175 12.0559 168.285 12.361 168.32 12.6791Z" fill="#DADAD8"/>
<path d="M157.835 20.2554C156.727 18.145 155.198 16.9538 153.25 16.6819C153.061 16.6533 152.873 16.6342 152.668 16.6228H152.656C149.828 16.483 147.802 16.9969 146.575 18.1646C145.41 17.3894 144.08 16.9035 142.694 16.7466C142.029 16.6537 141.357 16.6326 140.689 16.6838C139.873 16.7395 139.062 16.8445 138.26 16.9982L138.156 15.7842L137.402 15.8776L132.115 16.5351C132.33 19.6023 132.351 22.6803 132.175 25.7501L131.672 34.3437L138.045 34.6543L138.623 26.0302C138.725 24.5537 139.536 23.8467 141.056 23.909C142.074 24.1034 142.603 24.6357 142.645 25.5061L142.381 31.3095L142.251 34.8621L142.933 34.8964L147.736 35.1308L148.151 26.4095C148.116 24.2635 148.852 23.2158 150.359 23.2667C151.476 23.4154 152.063 24.0399 152.119 25.1402C151.898 29.5975 151.722 32.9911 151.59 35.3214L152.217 35.3519L156.551 35.5653L157.228 35.5977C157.669 32.838 158.019 28.959 158.277 23.9604C158.341 22.7088 158.191 21.4555 157.835 20.2554Z" fill="white"/>
<path d="M142.935 34.8956L142.253 34.8613L142.383 31.3087L142.647 25.5053C142.606 24.6363 142.076 24.1039 141.059 23.9082C141.059 23.9082 142.755 23.9921 143.065 25.2823C143.324 26.3268 143.048 32.5438 142.935 34.8956Z" fill="#DADAD8"/>
<path d="M152.221 35.3518L151.594 35.3213C151.726 32.9923 151.902 29.5985 152.123 25.1401C152.068 24.0398 151.481 23.4153 150.363 23.2666C151.567 23.3009 152.38 23.9565 152.645 24.7913C152.866 25.4984 152.391 32.8665 152.221 35.3518Z" fill="#DADAD8"/>
<path d="M138.262 16.9982L137.551 17.3584C137.551 17.3584 137.45 16.4589 137.406 15.8776L138.16 15.7842L138.262 16.9982Z" fill="#DADAD8"/>
<path d="M146.578 18.1643L146.137 18.7208C144.682 16.8397 140.691 16.6834 140.691 16.6834C141.36 16.6323 142.032 16.6534 142.696 16.7463C144.083 16.9032 145.413 17.389 146.578 18.1643Z" fill="#DADAD8"/>
<path d="M84.8606 19.883C84.382 15.328 82.5899 13.0295 79.4845 12.9876H79.443C75.4444 12.708 72.0708 14.3484 69.322 17.9085L72.5707 20.6816L73.1643 21.1886C75.1593 19.2179 76.7339 18.277 77.8884 18.366C78.5391 18.4828 78.8594 19.5825 78.8494 21.665C77.4122 21.4154 75.9498 21.3508 74.4965 21.4725C70.93 21.7266 69.0784 23.165 68.9414 25.7875C69.013 28.9221 70.5978 30.8367 73.6957 31.5318C75.5595 31.6479 77.4283 31.4134 79.2075 30.84L79.3526 31.9835L84.8342 30.7161L85.5371 30.5541C85.4529 27.5289 85.2275 23.9717 84.8606 19.883ZM76.1831 27.0968C75.2584 27.0396 74.707 26.802 74.5286 26.384C74.506 25.7869 74.8433 25.3897 75.5405 25.1928C76.0998 25.0577 76.6762 25.0108 77.2496 25.0537L78.8626 25.1147L78.955 26.891C78.0361 27.0307 77.1083 27.0995 76.1793 27.0968H76.1831Z" fill="white"/>
<path d="M77.8876 18.3666C76.7293 18.2726 75.1509 19.2128 73.1522 21.1873L72.5586 20.6803C72.5586 20.6803 75.5321 17.6729 77.8876 18.3666Z" fill="#DADAD8"/>
<path d="M85.5274 30.5567L84.8245 30.7187C84.7699 29.3522 84.4891 22.9217 83.8503 18.2619C83.1757 13.3523 79.8931 13.0112 79.4805 12.9883C82.5859 13.0277 84.3779 15.3262 84.8566 19.8838C85.2259 23.9725 85.4496 27.5302 85.5274 30.5567Z" fill="#DADAD8"/>
<path d="M78.9552 26.8915V27.347C78.9552 27.347 74.6701 28.4505 74.3234 26.943C73.9899 25.4888 75.4314 25.2124 75.5351 25.1934C74.8378 25.3916 74.5005 25.7886 74.5232 26.3845C74.7003 26.8014 75.2518 27.0388 76.1776 27.0973C77.1074 27.1002 78.0358 27.0314 78.9552 26.8915Z" fill="#DADAD8"/>
<path d="M131.187 22.2121C130.703 17.6533 128.911 15.3548 125.811 15.3167H125.77C121.771 15.0371 118.397 16.6775 115.649 20.2376L118.897 23.0107L119.491 23.5177C121.488 21.5432 123.067 20.603 124.226 20.697C124.877 20.8138 125.197 21.9135 125.187 23.996C123.749 23.7469 122.286 23.6829 120.832 23.8055C117.266 24.0595 115.414 25.4979 115.277 28.1204C115.35 31.2512 116.935 33.1647 120.032 33.8609C121.89 33.9764 123.754 33.7431 125.528 33.1729L125.673 34.3164L131.155 33.049L131.858 32.887C131.781 29.8591 131.558 26.3008 131.187 22.2121ZM122.51 29.4259C121.584 29.3687 121.032 29.1311 120.855 28.7131C120.832 28.1171 121.17 27.7201 121.867 27.5219C122.426 27.3868 123.003 27.3399 123.576 27.3828L125.189 27.4438L125.281 29.2201C124.364 29.3596 123.437 29.4284 122.51 29.4259Z" fill="white"/>
<path d="M124.227 20.6952C123.068 20.6024 121.489 21.5427 119.492 23.5159L118.898 23.0089C118.898 23.0089 121.864 19.9995 124.227 20.6952Z" fill="#DADAD8"/>
<path d="M131.859 32.8858L131.157 33.0478C131.102 31.6813 130.821 25.2489 130.182 20.591C129.508 15.6814 126.225 15.3403 125.812 15.3174C128.913 15.3555 130.705 17.654 131.189 22.2129C131.558 26.3016 131.782 29.8593 131.859 32.8858Z" fill="#DADAD8"/>
<path d="M125.287 29.2204V29.6683C125.287 29.6683 121.002 30.7699 120.655 29.2642C120.322 27.8101 121.763 27.5337 121.867 27.5146C121.17 27.718 120.831 28.1182 120.851 28.7154C121.029 29.1322 121.58 29.3696 122.506 29.4282C123.437 29.4304 124.367 29.3611 125.287 29.2204Z" fill="#DADAD8"/>
<path d="M69.0137 17.3888C68.3089 15.1195 67.1218 13.732 65.4522 13.2263L65.4183 13.2149H65.3994C65.0084 13.105 64.6063 13.041 64.201 13.0243C61.9397 12.9112 59.9819 13.2924 58.3274 14.1678L58.6741 4.62891L58.1766 4.72039L52.5235 5.75338L51.8093 5.88298C51.6071 11.4113 51.3991 16.3666 51.1856 20.7488L50.2773 29.6455L50.6712 29.7275L56.0567 30.8595L56.671 30.9891L56.8595 29.554C58.4612 30.404 59.9108 30.8609 61.2086 30.9243C61.9495 30.9503 62.6914 30.9139 63.4265 30.8157C66.3247 30.4079 68.1167 28.9188 68.8026 26.3483C69.3628 23.0079 69.4333 20.0214 69.0137 17.3888ZM62.75 23.8688C62.284 25.2067 60.5698 25.6641 57.6076 25.241L58.1823 18.134C58.9594 17.9684 59.7576 17.9285 60.5472 18.0158C62.581 18.4555 63.3153 20.4077 62.75 23.8726V23.8688Z" fill="white"/>
<path d="M68.8058 26.339C68.1224 28.9082 66.3303 30.3972 63.4297 30.8064C69.0602 28.5575 68.3649 25.4985 68.4007 19.7961C68.4346 14.5378 65.8549 13.3752 65.4554 13.2266C67.1212 13.7348 68.3065 15.1223 69.0112 17.389C69.432 20.0229 69.3636 23.0062 68.8058 26.339Z" fill="#DADAD8"/>
<path d="M52.5313 5.73828C52.4145 8.11873 51.8963 18.6011 51.6607 21.2922C51.4723 23.5087 50.9466 27.6426 50.679 29.7181L50.2852 29.6362L51.1934 20.7395C51.4082 16.3534 51.6161 11.3981 51.8172 5.8736L52.5313 5.73828Z" fill="#DADAD8"/>
<path d="M58.6777 4.61328L58.3309 14.1522L57.6055 14.9546L58.1802 4.70476L58.6777 4.61328Z" fill="#DADAD8"/>
<path d="M58.1795 18.1377L57.6047 25.2447L57.1562 24.8921L57.6047 18.4712L58.1795 18.1377Z" fill="#DADAD8"/>
<path d="M56.8634 29.5448L56.6768 30.9799L56.0625 30.8503L56.2754 29.0664L56.8634 29.5448Z" fill="#DADAD8"/>
<path d="M50.1876 6.0698C49.9253 5.69546 49.5454 5.42203 49.1098 5.2941H49.0966C48.7783 5.18983 48.4485 5.12581 48.1148 5.10352C44.6363 5.31825 42.9473 6.6136 43.0477 8.98961C43.0879 9.71512 43.2921 10.2723 43.6602 10.6611C44.0529 11.0491 44.5707 11.2811 45.1187 11.3148C48.6914 11.4304 50.4878 9.97686 50.508 6.95413C50.4714 6.63798 50.3618 6.335 50.1876 6.0698ZM49.6223 24.1413L49.1757 23.1084C47.8015 23.9368 47.0219 23.5911 46.8372 22.0716C46.8368 22.0653 46.8368 22.0588 46.8372 22.0525C46.7492 19.8874 47.3008 17.3037 48.4917 14.3013L42.8499 12.7766L42.1357 12.586C40.671 16.7065 40.0322 20.2997 40.2193 23.3657C40.2193 27.8001 42.1476 30.0147 46.0043 30.0096C48.2241 29.9625 49.9967 29.3335 51.322 28.1227L49.6223 24.1413Z" fill="white"/>
<path d="M46.0082 30.0036C42.1566 30.0036 40.2283 27.789 40.2232 23.3597C40.0361 20.2926 40.6749 16.6993 42.1396 12.5801L42.8538 12.7707C42.3205 14.444 40.8808 19.3383 40.9694 22.9881C41.0655 27.4574 42.6484 29.5958 46.0082 30.0036Z" fill="#DADAD8"/>
<path d="M49.621 24.1412C49.2216 24.2746 48.432 24.4633 47.8045 24.1412C46.981 23.7123 46.8491 22.2543 46.8359 22.0752C47.0231 23.5999 47.8026 23.9454 49.1744 23.112L49.621 24.1412Z" fill="#DADAD8"/>
<path d="M50.5119 6.95748C50.4906 9.9802 48.694 11.4338 45.1226 11.3181C44.5746 11.2845 44.0568 11.0524 43.6641 10.6644C44.6306 10.9192 45.6434 10.9342 46.6169 10.7083C47.3235 10.5405 48.4749 10.268 49.3266 9.20832C50.3329 7.95425 50.2311 6.45623 50.1915 6.06934C50.3662 6.33566 50.4759 6.64001 50.5119 6.95748Z" fill="#DADAD8"/>
<path d="M37.6212 12.325C35.904 11.5207 33.4592 11.6236 30.2872 12.6338L30.9072 3.2168L25.8005 3.96962L25.0279 4.08397L24.5437 16.2816L24.0273 29.0625L24.8169 29.1006L29.6974 29.3426L30.3852 21.0921C30.7069 19.6855 31.5466 19.016 32.9046 19.0833C33.8619 19.0108 34.4121 19.5178 34.5535 20.608C34.4278 24.7209 34.2797 27.694 34.1088 29.5275L35.0943 29.579L39.6168 29.8153C39.9937 25.09 40.2758 21.6957 40.4629 19.6322C40.9604 15.6717 40.0131 13.236 37.6212 12.325Z" fill="white"/>
<path d="M25.8005 3.96582L24.8169 29.0892L24.0273 29.0492L24.5437 16.2683L25.0279 4.08017L25.8005 3.96582Z" fill="#DADAD8"/>
<path d="M35.0959 29.5789L34.1104 29.5274C34.28 27.694 34.4283 24.7208 34.5551 20.6079C34.4137 19.5158 33.8635 19.0089 32.9062 19.0832C32.9062 19.0832 34.6022 18.7135 35.0601 20.7852C35.4332 22.489 35.192 27.7626 35.0959 29.5789Z" fill="#DADAD8"/>
<path d="M12.4652 11.12C12.3408 10.9942 11.9847 10.6359 12.0563 10.2605C12.0945 10.1402 12.159 10.0302 12.2447 9.93837C13.0475 9.03753 15.9074 9.7859 20.8243 12.1835L21.5667 11.0095L24.3405 6.60688C23.1684 5.57961 19.7295 2.84467 14.7396 2.68458C13.4206 2.64265 11.4514 2.51877 9.29379 3.56319C8.66818 3.86622 5.85669 5.22893 4.95973 8.09157C4.6848 9.01737 4.58267 9.98679 4.65823 10.9504C4.724 11.6018 4.87098 12.2421 5.09541 12.8563C5.98106 15.2291 8.1104 16.5651 8.78124 16.9539C13.3188 18.9869 15.673 20.3915 15.8439 21.1678C15.7849 22.756 12.9915 22.2993 7.46406 19.7975L5.17078 24.141L4.60547 25.1949C6.52941 26.5653 9.93259 28.5112 14.3759 28.7475C15.9626 28.8314 17.8809 28.9076 19.9575 27.8841C21.2765 27.2342 22.7614 26.1345 23.6734 24.749C24.1289 24.0893 24.4157 23.3258 24.5082 22.5267C24.7965 19.6679 22.2112 16.9082 20.0517 15.5016C18.1202 14.2304 13.2943 11.9548 12.4652 11.12Z" fill="white"/>
<path d="M15.8383 21.1696C15.6687 20.3896 13.3145 18.9849 8.77563 16.9557C7.08516 16.102 5.7708 14.6407 5.08979 12.8581C4.52052 11.3296 4.47285 9.65249 4.95412 8.09338C6.07155 4.60943 9.47662 3.43541 9.87045 3.31152C7.17014 4.80573 5.49493 7.14425 5.34795 9.21976C5.24845 10.4262 5.4938 11.6361 6.05459 12.7056C6.22644 12.9822 6.42185 13.243 6.63874 13.4851C7.14753 14.0893 8.66633 15.2195 11.2234 16.5136C11.2234 16.5136 14.9507 17.9373 15.7648 20.8571C15.8006 20.9886 15.8232 21.0915 15.8383 21.1696Z" fill="#DADAD8"/>
<path d="M21.5603 11.0099L20.8178 12.1839C15.8996 9.78633 13.0397 9.03794 12.2383 9.9388C13.7477 7.48974 21.5603 11.0099 21.5603 11.0099Z" fill="#DADAD8"/>
<path d="M23.6852 24.7418C22.7731 26.1273 21.2807 27.2194 19.9692 27.8769C17.8964 28.9004 15.9743 28.8299 14.3877 28.7403C9.94431 28.504 6.54113 26.5581 4.61719 25.1877L5.1825 24.1338C6.93874 25.224 10.8601 27.4272 14.284 27.7226C18.8499 28.119 22.238 26.7086 23.6852 24.7418Z" fill="#DADAD8"/>
<path d="M116.721 7.5752H116.355L95.25 8.04595L97.059 32.5784L104.857 31.9552L105.288 31.9209L104.736 22.8813L111.416 22.6907L112.245 17.8002H111.846L104.497 17.6611L104.453 15.3112L115.454 14.8404L116.721 7.5752Z" fill="white"/>
<path d="M116.722 7.5752L115.471 14.8309L104.47 15.3016L104.441 14.8118L115.278 14.3087L116.356 7.58282L116.722 7.5752Z" fill="#DADAD8"/>
<path d="M111.423 22.6891L104.743 22.8854L105.295 31.925L104.864 31.9593H104.858L104.441 22.6662L111.039 22.2717L111.853 17.7891L112.252 17.7986L111.423 22.6891Z" fill="#DADAD8"/>
<path d="M171.826 36.0686C170.375 35.6202 169.459 34.7307 169.079 33.4004C168.649 32.1615 168.485 30.5454 168.589 28.5518C168.738 23.3093 169.947 17.2868 172.22 10.484L173.109 10.4707C173.109 10.4707 170.948 16.5352 169.955 22.3081C169.028 27.698 167.79 34.0941 171.826 36.0686Z" fill="#DADAD8"/>
<path d="M178.114 30.3546C177.611 30.7114 176.993 30.8576 176.386 30.7625C175.129 30.5719 174.925 29.6304 174.914 29.5789C175.106 30.0872 175.442 30.3527 175.92 30.3756C176.239 30.3733 176.552 30.2999 176.838 30.161C177.124 30.0218 177.377 29.8206 177.579 29.5713L178.114 30.3546Z" fill="#DADAD8"/>
<path d="M185.038 33.0759C181.709 32.6185 179.9 30.6045 179.609 27.0343C179.611 24.5837 179.756 22.1354 180.045 19.7023L180.836 19.5518C180.836 19.5518 180.135 25.0026 180.42 27.8004C180.704 30.5983 182.24 32.6166 185.038 33.0759Z" fill="#DADAD8"/>
<path d="M189.194 33.2891C189.194 33.2891 186.862 37.0799 180.287 39.9597L179.91 39.3879C183.526 37.7361 186.411 35.7032 188.569 33.2891H189.194Z" fill="#DADAD8"/>
<path d="M189.974 27.7242C190.188 24.6201 190.126 21.5026 189.785 18.4102L190.298 18.5188C190.298 18.5188 190.697 26.6855 189.974 27.7242Z" fill="#DADAD8"/>
<path d="M118.556 52.7907C118.158 52.7915 117.76 52.7681 117.365 52.7202C114.708 52.3886 112.965 50.7896 112.089 49.7413C109.709 49.4249 107.286 49.1524 104.876 48.9275C100.312 48.5006 95.8532 48.2566 82.8623 48.0146C78.5622 47.9345 74.1942 47.8716 69.8432 47.824C68.3809 49.0819 65.2152 51.3613 61.4992 51.3613C60.7744 51.3623 60.0522 51.2727 59.3491 51.0945C56.5395 50.376 54.7022 48.9008 54.1746 46.9397C54.1746 46.9111 54.1595 46.8806 54.1539 46.852C53.809 45.2549 54.1162 43.734 54.9981 42.6781C55.2251 42.4056 55.4897 42.1675 55.7839 41.971C55.0207 41.0181 54.7606 40.1795 54.706 39.5487C54.6099 38.4528 55.0678 37.2978 55.9949 36.2972C56.7298 35.5116 57.6321 34.9053 58.633 34.5247C59.3254 34.2713 60.0563 34.1422 60.7925 34.1436C63.5626 34.1436 66.5549 35.8284 68.8821 38.6739C73.8343 40.5645 82.2612 40.818 89.7158 41.0448C93.7559 41.1667 97.5717 41.283 100.687 41.6375C101.113 41.6857 101.511 41.8771 101.817 42.1807C102.603 42.1407 103.402 42.0816 104.188 42.0244C105.07 41.9596 105.982 41.8929 106.858 41.8529C107.423 41.7881 107.938 41.7747 108.397 41.7633C109.355 41.7385 110.054 41.7214 110.97 41.2868C111.512 40.947 112.028 40.5647 112.511 40.1433C114.273 38.6777 115.756 37.7095 120.143 37.6104H120.309C123.203 37.6104 125.419 38.8168 126.096 40.7589C126.433 41.7309 126.604 43.5434 124.52 45.5865C124.897 46.7205 125.138 48.3557 124.29 49.9395C123.299 51.7768 121.264 52.7907 118.556 52.7907Z" fill="#1C1C1C"/>
<path d="M122.559 43.9476V43.9609C122.708 44.203 123.861 46.1927 122.921 47.95C121.724 50.1856 118.325 49.8082 117.916 49.7567C115.169 49.4118 113.684 47.2486 113.443 46.8827C111.558 46.6254 108.767 46.2728 105.364 45.9545C100.768 45.5257 96.2872 45.2779 83.2058 45.0359C79.6029 44.9692 74.9146 44.8948 69.4198 44.8453C68.8657 45.3751 64.6221 49.3279 60.1354 48.1806C59.6511 48.0586 56.8434 47.3401 56.3045 45.337C56.0897 44.3383 56.2386 43.4311 56.6663 42.825C57.16 42.1218 58.0287 41.8168 59.1405 42.2209C59.8264 42.4515 60.5745 42.5163 60.648 42.3181C60.6989 42.1732 60.1317 41.8359 59.7755 41.6015C59.4608 41.3937 57.0262 39.789 56.8924 38.2547C56.7831 36.974 58.2661 35.5865 59.6059 35.0986C62.0556 34.1933 65.4663 35.7332 68.0008 39.0457C75.821 42.3295 91.6742 41.2851 100.77 42.3238C100.565 42.6211 97.1465 42.5887 97.3782 42.7964C97.6647 42.8822 98.3807 42.9241 99.5321 42.9203C102.035 43.0004 104.808 42.6554 107.322 42.5392C108.965 42.3314 110.286 42.6821 112.191 41.7463C115.007 40.0653 114.899 38.4244 120.483 38.2986C124.466 38.2452 126.59 40.9516 122.559 43.9476Z" fill="#FBFAEB"/>
<path d="M122.925 47.9494C121.728 50.185 118.329 49.8076 117.92 49.7562C115.173 49.4112 113.688 47.248 113.446 46.8821C111.562 46.6248 108.771 46.2722 105.368 45.9539C100.772 45.5251 96.2911 45.2773 83.2097 45.0353C79.6068 44.9686 74.9185 44.8943 69.4237 44.8447C68.8697 45.3745 64.626 49.3273 60.1393 48.18C59.6551 48.058 56.8473 47.3395 56.3084 45.3364C56.0936 44.3377 56.2425 43.4305 56.6702 42.8245C56.6702 42.8245 55.8222 46.9469 60.8045 47.1642C65.7868 47.3814 68.4268 43.0093 68.9469 42.8188C69.467 42.6282 77.4699 43.8594 85.5294 44.1815C93.5889 44.5036 112.21 44.656 112.955 44.9838C113.699 45.3117 115.953 49.8877 119.444 48.9176C122.936 47.9475 123.125 45.8053 122.561 43.947V43.9604C122.719 44.2024 123.867 46.1922 122.925 47.9494Z" fill="#EFEBCA"/>
</svg>
