<svg width="60" height="47" viewBox="0 0 60 47" fill="none" xmlns="http://www.w3.org/2000/svg">
<g clip-path="url(#clip0)">
<path d="M9.74517 35.8718C10.1073 35.5099 10.6051 35.2988 11.1332 35.2988H59.0185C59.8935 35.2988 60.331 36.3543 59.7125 36.9726L50.2531 46.4268C49.891 46.7887 49.3932 46.9998 48.8651 46.9998H0.979774C0.104742 46.9998 -0.332773 45.9443 0.285783 45.3261L9.74517 35.8718Z" fill="url(#paint0_linear)"/>
<path d="M9.74517 0.572987C10.1223 0.2111 10.6202 0 11.1332 0H59.0185C59.8935 0 60.331 1.0555 59.7125 1.67372L50.2531 11.128C49.891 11.4899 49.3932 11.701 48.8651 11.701H0.979774C0.104742 11.701 -0.332773 10.6455 0.285783 10.0273L9.74517 0.572987Z" fill="url(#paint1_linear)"/>
<path d="M50.2531 18.1091C49.891 17.7472 49.3932 17.5361 48.8651 17.5361H0.979774C0.104742 17.5361 -0.332773 18.5916 0.285783 19.2099L9.74517 28.6641C10.1073 29.026 10.6051 29.2371 11.1332 29.2371H59.0185C59.8935 29.2371 60.331 28.1816 59.7125 27.5634L50.2531 18.1091Z" fill="url(#paint2_linear)"/>
</g>
<defs>
<linearGradient id="paint0_linear" x1="54.4441" y1="-5.64793" x2="21.3317" y2="57.8098" gradientUnits="userSpaceOnUse">
<stop stop-color="#00FFA3"/>
<stop offset="1" stop-color="#DC1FFF"/>
</linearGradient>
<linearGradient id="paint1_linear" x1="39.9532" y1="-13.2091" x2="6.84089" y2="50.2487" gradientUnits="userSpaceOnUse">
<stop stop-color="#00FFA3"/>
<stop offset="1" stop-color="#DC1FFF"/>
</linearGradient>
<linearGradient id="paint2_linear" x1="47.1525" y1="-9.45274" x2="14.0402" y2="54.005" gradientUnits="userSpaceOnUse">
<stop stop-color="#00FFA3"/>
<stop offset="1" stop-color="#DC1FFF"/>
</linearGradient>
<clipPath id="clip0">
<rect width="60" height="47" fill="white"/>
</clipPath>
</defs>
</svg>
